<svg width="61" height="61" viewBox="0 0 61 61" fill="none" xmlns="http://www.w3.org/2000/svg">
<path d="M48.473 48.4127C45.1545 48.4127 42.4938 51.0734 42.4938 54.3918C42.4938 55.9776 43.1238 57.4984 44.2451 58.6198C45.3664 59.7411 46.8872 60.371 48.473 60.371C50.0588 60.371 51.5796 59.7411 52.7009 58.6198C53.8222 57.4984 54.4521 55.9776 54.4521 54.3918C54.4521 52.8061 53.8222 51.2853 52.7009 50.1639C51.5796 49.0426 50.0588 48.4127 48.473 48.4127ZM0.639648 0.579346V6.55851H6.61881L17.3813 29.2495L13.3155 36.5739C12.867 37.411 12.598 38.3976 12.598 39.4439C12.598 41.0297 13.2279 42.5505 14.3492 43.6718C15.4705 44.7932 16.9914 45.4231 18.5771 45.4231H54.4521V39.4439H19.8328C19.6346 39.4439 19.4444 39.3652 19.3043 39.225C19.1641 39.0849 19.0854 38.8948 19.0854 38.6965C19.0854 38.5471 19.1153 38.4275 19.1751 38.3378L21.8657 33.4648H44.1381C46.3803 33.4648 48.3534 32.2091 49.3699 30.3855L60.0726 11.0429C60.2818 10.5646 60.4313 10.0563 60.4313 9.5481C60.4313 8.75521 60.1163 7.9948 59.5557 7.43414C58.995 6.87349 58.2346 6.55851 57.4417 6.55851H13.2258L10.4156 0.579346M18.5771 48.4127C15.2587 48.4127 12.598 51.0734 12.598 54.3918C12.598 55.9776 13.2279 57.4984 14.3492 58.6198C15.4705 59.7411 16.9914 60.371 18.5771 60.371C20.1629 60.371 21.6837 59.7411 22.8051 58.6198C23.9264 57.4984 24.5563 55.9776 24.5563 54.3918C24.5563 52.8061 23.9264 51.2853 22.8051 50.1639C21.6837 49.0426 20.1629 48.4127 18.5771 48.4127Z" fill="white"/>
</svg>
