<svg width="28" height="34" viewBox="0 0 28 34" fill="none" xmlns="http://www.w3.org/2000/svg">
<path fill-rule="evenodd" clip-rule="evenodd" d="M22.3333 0.333496C23.6594 0.333496 24.9311 0.86028 25.8688 1.79796C26.8065 2.73564 27.3333 4.00741 27.3333 5.3335V32.0002C27.3331 32.3141 27.2443 32.6215 27.077 32.8872C26.9097 33.1528 26.6708 33.3658 26.3878 33.5017C26.1048 33.6375 25.7892 33.6907 25.4774 33.655C25.1655 33.6194 24.87 33.4964 24.625 33.3002L21.5 30.8002L18.375 33.3002C18.0548 33.5566 17.6513 33.686 17.2417 33.6636C16.8321 33.6411 16.4452 33.4684 16.155 33.1785L14 31.0235L11.845 33.1785C11.555 33.4687 11.1681 33.6417 10.7585 33.6645C10.3489 33.6872 9.94531 33.5581 9.62496 33.3018L6.49996 30.8002L3.37496 33.3002C3.12991 33.4964 2.83444 33.6194 2.52256 33.655C2.21068 33.6907 1.89507 33.6375 1.61207 33.5017C1.32908 33.3658 1.09019 33.1528 0.92293 32.8872C0.755666 32.6215 0.666822 32.3141 0.666626 32.0002V5.3335C0.666626 4.00741 1.19341 2.73564 2.13109 1.79796C3.06877 0.86028 4.34054 0.333496 5.66663 0.333496H22.3333ZM14 17.0002H8.99996C8.55793 17.0002 8.13401 17.1758 7.82145 17.4883C7.50889 17.8009 7.33329 18.2248 7.33329 18.6668C7.33329 19.1089 7.50889 19.5328 7.82145 19.8453C8.13401 20.1579 8.55793 20.3335 8.99996 20.3335H14C14.442 20.3335 14.8659 20.1579 15.1785 19.8453C15.491 19.5328 15.6666 19.1089 15.6666 18.6668C15.6666 18.2248 15.491 17.8009 15.1785 17.4883C14.8659 17.1758 14.442 17.0002 14 17.0002ZM19 10.3335H8.99996C8.57516 10.334 8.16657 10.4966 7.85768 10.7882C7.54878 11.0799 7.3629 11.4784 7.33801 11.9025C7.31311 12.3266 7.45108 12.7441 7.72373 13.0699C7.99638 13.3956 8.38313 13.605 8.80496 13.6552L8.99996 13.6668H19C19.4248 13.6664 19.8333 13.5037 20.1422 13.2121C20.4511 12.9205 20.637 12.5219 20.6619 12.0978C20.6868 11.6738 20.5488 11.2562 20.2762 10.9304C20.0035 10.6047 19.6168 10.3953 19.195 10.3452L19 10.3335Z" fill="white"/>
</svg>
