<svg width="194" height="130" viewBox="0 0 194 130" fill="none" xmlns="http://www.w3.org/2000/svg">
<g clip-path="url(#clip0_2466_28584)">
<path fill-rule="evenodd" clip-rule="evenodd" d="M193.83 87.5547C193.83 87.5537 193.83 87.5526 193.83 87.5516C193.83 77.1807 185.423 68.7734 175.052 68.7734C164.681 68.7734 156.273 77.1807 156.273 87.5516C156.273 87.5526 156.273 87.5537 156.273 87.5547L193.83 87.5547Z" fill="#457BAD"/>
<path fill-rule="evenodd" clip-rule="evenodd" d="M134.047 87.5563C134.048 87.5563 134.049 87.5563 134.05 87.5563C144.421 87.5563 152.828 79.1491 152.828 68.7782C152.828 58.4073 144.421 50 134.05 50C134.049 50 134.048 50 134.047 50L134.047 87.5563Z" fill="#FDB839"/>
<path fill-rule="evenodd" clip-rule="evenodd" d="M83.0742 128.174C83.0752 128.174 83.0763 128.174 83.0773 128.174C93.4482 128.174 101.855 119.766 101.855 109.395C101.855 99.0245 93.4482 90.6172 83.0773 90.6172C83.0763 90.6172 83.0752 90.6172 83.0742 90.6172L83.0742 128.174Z" fill="#1D3C59"/>
<path fill-rule="evenodd" clip-rule="evenodd" d="M193.836 90.6155C193.835 90.6155 193.834 90.6155 193.833 90.6155C183.462 90.6155 175.055 99.0228 175.055 109.394C175.055 119.765 183.462 128.172 193.833 128.172C193.834 128.172 193.835 128.172 193.836 128.172L193.836 90.6155Z" fill="#FF6E41"/>
<path fill-rule="evenodd" clip-rule="evenodd" d="M157.811 91.5781C157.811 91.5785 157.811 91.5789 157.811 91.5792C157.811 96.9763 162.186 101.352 167.583 101.352C172.98 101.352 177.355 96.9763 177.355 91.5793C177.355 91.5789 177.355 91.5785 177.355 91.5781L157.811 91.5781Z" fill="#1D3C59"/>
<path fill-rule="evenodd" clip-rule="evenodd" d="M127.918 70.3109C127.917 70.3109 127.916 70.3109 127.915 70.3109C117.544 70.3108 109.137 78.7181 109.137 89.089C109.137 99.4599 117.544 107.867 127.915 107.867C127.916 107.867 127.917 107.867 127.918 107.867L127.918 70.3109Z" fill="#FF6E41"/>
<path fill-rule="evenodd" clip-rule="evenodd" d="M153.973 145.424C153.974 145.424 153.975 145.424 153.976 145.424C164.347 145.424 172.754 137.016 172.754 126.645C172.754 116.274 164.347 107.867 153.976 107.867C153.975 107.867 153.974 107.867 153.973 107.867L153.973 145.424Z" fill="#FDB839"/>
<path fill-rule="evenodd" clip-rule="evenodd" d="M132.898 91.7734L132.898 110.555C132.899 110.555 132.9 110.555 132.902 110.555C143.272 110.555 151.68 102.147 151.68 91.7765L151.68 91.7734L132.898 91.7734Z" fill="#1D3C59"/>
<path fill-rule="evenodd" clip-rule="evenodd" d="M127.918 128.18L127.918 109.398C127.917 109.398 127.916 109.398 127.915 109.398C117.544 109.398 109.137 117.806 109.137 128.177L109.137 128.18L127.918 128.18Z" fill="#FDB839"/>
<ellipse cx="140.18" cy="120.898" rx="7.28133" ry="7.28133" transform="rotate(-180 140.18 120.898)" fill="#1D3C59"/>
<path fill-rule="evenodd" clip-rule="evenodd" d="M54.2769 20.6797L12.9141 20.6797C12.915 9.25845 22.174 0 33.5955 0C45.017 0 54.276 9.25845 54.2769 20.6797Z" fill="#FDB839"/>
<path fill-rule="evenodd" clip-rule="evenodd" d="M-38.9996 69.6484L2.36328 69.6484C2.36234 81.0697 -6.89669 90.3281 -18.3182 90.3281C-29.7396 90.3281 -38.9986 81.0697 -38.9996 69.6484Z" fill="#FDB839"/>
<path fill-rule="evenodd" clip-rule="evenodd" d="M27.1587 69.6396C27.0519 69.638 26.9449 69.6371 26.8377 69.6371C15.4156 69.6371 6.15625 78.8965 6.15625 90.3186C6.15625 101.74 15.4147 110.999 26.8359 111L26.8359 69.6396L27.1587 69.6396Z" fill="#FDB839"/>
<path fill-rule="evenodd" clip-rule="evenodd" d="M82.9766 66.2656L82.9766 24.9028C71.5553 24.9037 62.2969 34.1627 62.2969 45.5842C62.2969 57.0057 71.5553 66.2647 82.9766 66.2656Z" fill="#1D3C59"/>
<path fill-rule="evenodd" clip-rule="evenodd" d="M0.672457 65.3924C0.673487 65.3311 0.674004 65.2697 0.674004 65.2081C0.674004 59.264 -4.14466 54.4453 -10.0888 54.4453C-16.0329 54.4453 -20.8516 59.264 -20.8516 65.2081C-20.8516 65.2084 -20.8516 65.2087 -20.8516 65.2091H0.672457V65.3924Z" fill="#1D3C59"/>
<path fill-rule="evenodd" clip-rule="evenodd" d="M83.399 80.5878C83.4 80.5264 83.4006 80.465 83.4006 80.4034C83.4006 74.4593 78.5819 69.6406 72.6378 69.6406C66.6937 69.6406 61.875 74.4593 61.875 80.4034C61.875 80.4037 61.875 80.4041 61.875 80.4044H83.399V80.5878Z" fill="#FDB839"/>
<path fill-rule="evenodd" clip-rule="evenodd" d="M33.5937 47.2656L33.5937 88.6285C45.015 88.6275 54.2734 79.3685 54.2734 67.9471C54.2734 56.5256 45.015 47.2666 33.5937 47.2656Z" fill="#FF6E41"/>
<path fill-rule="evenodd" clip-rule="evenodd" d="M4.88672 47.2656L4.88672 5.90277C-6.53452 5.90371 -15.793 15.1627 -15.793 26.5842C-15.793 38.0057 -6.53452 47.2647 4.88672 47.2656Z" fill="#FF6E41"/>
<path fill-rule="evenodd" clip-rule="evenodd" d="M28.1055 64.9922L28.1055 44.3125C16.6848 44.3134 7.42672 53.5715 7.42578 64.9922L28.1055 64.9922Z" fill="#457BAD"/>
<path fill-rule="evenodd" clip-rule="evenodd" d="M33.5977 45.5781C45.0183 45.5772 54.2764 36.3191 54.2773 24.8984L33.5977 24.8984L33.5977 45.5781Z" fill="#457BAD"/>
<circle cx="20.0896" cy="32.9178" r="8.01933" fill="#1D3C59"/>
<circle cx="49.6365" cy="98.3396" r="8.01933" fill="#1D3C59"/>
</g>
<defs>
<clipPath id="clip0_2466_28584">
<rect width="194" height="130" fill="white"/>
</clipPath>
</defs>
</svg>
