<svg width="359" height="440" viewBox="0 0 359 440" fill="none" xmlns="http://www.w3.org/2000/svg">
<g clip-path="url(#clip0_2841_29270)">
<path fill-rule="evenodd" clip-rule="evenodd" d="M69.3227 372.936C69.3224 373.022 69.3219 373.107 69.3212 373.192C69.0669 405.304 42.8291 431.129 10.7174 430.875C-21.3942 430.62 -47.2196 404.382 -46.9652 372.271C-46.9652 372.27 -46.9652 372.27 -46.9652 372.269L69.3207 373.19L69.3227 372.936Z" fill="#FDB839"/>
<path fill-rule="evenodd" clip-rule="evenodd" d="M7.36719 235.21C4.61335 235.588 1.79866 235.772 -1.06268 235.75C-33.1743 235.495 -58.9997 209.257 -58.7454 177.146C-58.4971 145.801 -33.4919 120.446 -2.43252 119.489L-3.34848 235.126L7.36719 235.21Z" fill="#FDB839"/>
<path fill-rule="evenodd" clip-rule="evenodd" d="M150.106 361.958C150.105 361.958 150.105 361.958 150.105 361.958C117.993 361.704 92.1679 335.466 92.4223 303.354C92.6766 271.243 118.914 245.417 151.026 245.671C151.026 245.671 151.027 245.671 151.027 245.671L150.106 361.958Z" fill="#1D3C59"/>
<path fill-rule="evenodd" clip-rule="evenodd" d="M152.527 205.663C152.527 205.753 152.526 205.842 152.526 205.932C152.393 222.643 138.739 236.083 122.028 235.951C105.317 235.818 91.8775 222.165 92.0092 205.454L152.524 205.933L152.527 205.663Z" fill="#1D3C59"/>
<path fill-rule="evenodd" clip-rule="evenodd" d="M12.6911 181.683C12.6914 181.683 12.6917 181.683 12.6919 181.683C44.8036 181.937 70.629 208.175 70.3746 240.286C70.1203 272.398 43.8825 298.223 11.7708 297.969C11.7706 297.969 11.7703 297.969 11.77 297.969L12.6911 181.683Z" fill="#FF6E41"/>
<path fill-rule="evenodd" clip-rule="evenodd" d="M11.731 302.723C11.7312 302.723 11.7313 302.723 11.7314 302.723C43.843 302.977 69.6684 329.215 69.4141 361.326L69.4141 361.328L11.2705 360.868L11.731 302.723Z" fill="#457BAD"/>
<circle cx="22.546" cy="22.546" r="22.546" transform="matrix(0.999969 0.00792073 0.00792073 -0.999969 35.2734 177.117)" fill="#1D3C59"/>
<path fill-rule="evenodd" clip-rule="evenodd" d="M357.17 137.88C357.17 137.966 357.17 138.051 357.169 138.137C356.915 170.249 330.677 196.074 298.565 195.82C266.453 195.566 240.628 169.328 240.882 137.216C240.882 137.216 240.882 137.215 240.882 137.214L357.168 138.135L357.17 137.88Z" fill="#457BAD"/>
<path fill-rule="evenodd" clip-rule="evenodd" d="M169.085 137.463C169.342 137.462 169.599 137.462 169.856 137.464C201.968 137.718 227.793 163.956 227.539 196.068C227.284 228.179 201.047 254.005 168.935 253.75C168.677 253.748 168.42 253.745 168.164 253.739L169.085 137.463Z" fill="#FDB839"/>
<path fill-rule="evenodd" clip-rule="evenodd" d="M14.7759 9.86615C14.7762 9.86615 14.7765 9.86615 14.7768 9.86615C46.8894 9.86615 72.9219 35.8986 72.9219 68.0112C72.9219 100.124 46.8894 126.156 14.7768 126.156C14.7765 126.156 14.7762 126.156 14.7759 126.156L14.7759 9.86615Z" fill="#1D3C59"/>
<path fill-rule="evenodd" clip-rule="evenodd" d="M357.246 128.645C357.246 128.645 357.246 128.645 357.246 128.645C325.134 128.391 299.309 102.153 299.563 70.0417C299.817 37.93 326.055 12.1046 358.167 12.359C358.167 12.359 358.167 12.359 358.168 12.359L357.246 128.645Z" fill="#457BAD"/>
<path fill-rule="evenodd" clip-rule="evenodd" d="M245.731 125.063C245.731 124.973 245.731 124.884 245.732 124.794C245.865 108.083 259.519 94.6436 276.23 94.776C292.941 94.9083 306.38 108.562 306.249 125.273L245.733 124.793L245.731 125.063Z" fill="#FF6E41"/>
<path fill-rule="evenodd" clip-rule="evenodd" d="M152.653 189.919C152.652 189.919 152.652 189.919 152.652 189.919C120.54 189.665 94.7148 163.427 94.9691 131.315C95.2235 99.2035 121.461 73.3781 153.573 73.6324C153.573 73.6324 153.573 73.6324 153.574 73.6324L152.653 189.919Z" fill="#457BAD"/>
<path fill-rule="evenodd" clip-rule="evenodd" d="M235.183 -42.0204C235.184 -42.0204 235.184 -42.0204 235.184 -42.0204C267.296 -41.7661 293.121 -15.5283 292.867 16.5833C292.612 48.695 266.375 74.5204 234.263 74.266C234.263 74.266 234.262 74.266 234.262 74.266L235.183 -42.0204Z" fill="#FDB839"/>
<path fill-rule="evenodd" clip-rule="evenodd" d="M169.066 65.4491C169.066 65.4491 169.067 65.4491 169.067 65.4491C201.179 65.7035 227.004 91.9413 226.75 124.053L226.75 124.055L168.605 123.594L169.066 65.4491Z" fill="#1D3C59"/>
<path fill-rule="evenodd" clip-rule="evenodd" d="M153.61 68.879C153.61 68.879 153.609 68.879 153.608 68.879C121.497 68.6247 95.6714 42.3869 95.9258 10.2752L95.9258 10.2734L154.071 10.734L153.61 68.879Z" fill="#FDB839"/>
<circle cx="22.546" cy="22.546" r="22.546" transform="matrix(-0.999969 -0.00792064 -0.00792064 0.999969 214.59 11.2188)" fill="#1D3C59"/>
</g>
<defs>
<clipPath id="clip0_2841_29270">
<rect width="377" height="496" fill="white" transform="matrix(-1 0 0 1 359 -56)"/>
</clipPath>
</defs>
</svg>
