<svg width="146" height="139" viewBox="0 0 146 139" fill="none" xmlns="http://www.w3.org/2000/svg">
<path fill-rule="evenodd" clip-rule="evenodd" d="M117.897 114.327C117.897 114.397 117.897 114.467 117.898 114.536C118.001 127.489 128.584 137.906 141.536 137.803C154.488 137.7 164.905 127.117 164.803 114.165C164.803 114.164 164.803 114.163 164.802 114.162L117.899 114.534L117.897 114.327Z" fill="#FDB839"/>
<path fill-rule="evenodd" clip-rule="evenodd" d="M142.892 58.8713C144.001 59.023 145.134 59.0972 146.286 59.088C159.239 58.9854 169.655 48.4023 169.553 35.45C169.453 22.8069 159.366 12.5797 146.838 12.1941L147.208 58.8371L142.892 58.8713Z" fill="#FDB839"/>
<path fill-rule="evenodd" clip-rule="evenodd" d="M85.1062 110.005C85.1753 110.005 85.2445 110.005 85.3138 110.004C98.2661 109.902 108.683 99.3186 108.58 86.3663C108.478 73.414 97.8946 62.9972 84.9423 63.0998C84.9421 63.0998 84.942 63.0998 84.9418 63.0998L85.3133 110.003L85.1062 110.005Z" fill="#1D3C59"/>
<path fill-rule="evenodd" clip-rule="evenodd" d="M84.3372 46.9465C84.3371 46.9891 84.3373 47.0318 84.3376 47.0745C84.391 53.815 89.8985 59.236 96.639 59.1826C103.379 59.1292 108.8 53.6224 108.747 46.8825L84.3383 47.0758L84.3372 46.9465Z" fill="#1D3C59"/>
<path fill-rule="evenodd" clip-rule="evenodd" d="M140.948 37.2918C140.879 37.2918 140.81 37.292 140.741 37.2926C127.789 37.3952 117.372 47.9783 117.474 60.9306C117.577 73.8829 128.16 84.2996 141.112 84.197C141.113 84.197 141.113 84.197 141.113 84.197L140.741 37.2935L140.948 37.2918Z" fill="#FF6E41"/>
<path fill-rule="evenodd" clip-rule="evenodd" d="M141.126 86.0978C128.174 86.2004 117.758 96.7827 117.859 109.734L141.312 109.549L141.126 86.0978Z" fill="#457BAD"/>
<circle cx="122.463" cy="26.4236" r="9.09401" transform="rotate(179.546 122.463 26.4236)" fill="#1D3C59"/>
<path fill-rule="evenodd" clip-rule="evenodd" d="M1.79573 19.5098C1.79568 19.5785 1.79593 19.6473 1.79647 19.7162C1.89907 32.6685 12.4822 43.0852 25.4345 42.9826C38.3863 42.88 48.8028 32.2977 48.701 19.3461L1.79737 19.7176L1.79573 19.5098Z" fill="#FF6E41"/>
<path fill-rule="evenodd" clip-rule="evenodd" d="M77.6618 19.4406C77.5581 19.44 77.4542 19.4402 77.3502 19.441C64.3979 19.5436 53.9812 30.1267 54.0838 43.079C54.1864 56.0313 64.7695 66.4481 77.7218 66.3455C77.8258 66.3447 77.9296 66.3432 78.0333 66.341L77.6618 19.4406Z" fill="#FDB839"/>
<path fill-rule="evenodd" clip-rule="evenodd" d="M140.251 -32.0206C140.135 -32.0223 140.019 -32.0231 139.902 -32.0231C126.949 -32.0231 116.449 -21.5229 116.449 -8.57016C116.449 4.38256 126.949 14.8828 139.902 14.8828C139.903 14.8828 139.904 14.8828 139.904 14.8828L139.904 -32.0206L140.251 -32.0206Z" fill="#1D3C59"/>
<path fill-rule="evenodd" clip-rule="evenodd" d="M1.55581 15.88C1.62482 15.8801 1.69389 15.8798 1.76304 15.8793C14.7153 15.7767 25.1321 5.19361 25.0295 -7.7587C24.9269 -20.711 14.3438 -31.1278 1.39151 -31.0252C1.39134 -31.0252 1.39117 -31.0252 1.391 -31.0252L1.76252 15.8784L1.55581 15.88Z" fill="#457BAD"/>
<path fill-rule="evenodd" clip-rule="evenodd" d="M46.7448 14.4596C46.7449 14.417 46.7448 14.3744 46.7444 14.3317C46.691 7.59121 41.1835 2.17025 34.443 2.22364C27.703 2.27703 22.2822 7.78387 22.3349 14.5238L46.7438 14.3304L46.7448 14.4596Z" fill="#FF6E41"/>
<path fill-rule="evenodd" clip-rule="evenodd" d="M84.0792 40.5988C84.1483 40.5988 84.2173 40.5986 84.2865 40.598C97.2388 40.4955 107.656 29.9124 107.553 16.96C107.45 4.00774 96.8673 -6.40902 83.915 -6.30643C83.9148 -6.30642 83.9146 -6.30642 83.9144 -6.30642L84.286 40.5972L84.0792 40.5988Z" fill="#457BAD"/>
<path fill-rule="evenodd" clip-rule="evenodd" d="M77.6669 -9.60532C77.6662 -9.60532 77.6656 -9.60531 77.6649 -9.60531C64.7131 -9.50272 54.2966 1.07959 54.3984 14.0312L77.8526 13.8455L77.6669 -9.60532Z" fill="#1D3C59"/>
</svg>
