<svg width="130" height="126" viewBox="0 0 130 126" fill="none" xmlns="http://www.w3.org/2000/svg">
<g clip-path="url(#clip0_2841_38062)">
<path fill-rule="evenodd" clip-rule="evenodd" d="M105.444 103.562C105.444 103.563 105.444 103.564 105.444 103.565C105.537 115.265 115.096 124.675 126.796 124.582C138.496 124.489 147.905 114.93 147.813 103.23C147.813 103.229 147.813 103.228 147.813 103.227L105.444 103.562Z" fill="#FDB839"/>
<path fill-rule="evenodd" clip-rule="evenodd" d="M127.998 53.29C129.007 53.4294 130.039 53.4975 131.089 53.4892C142.788 53.3965 152.198 43.8368 152.105 32.137C152.015 20.7161 142.903 11.4777 131.586 11.13L131.92 53.259L127.998 53.29Z" fill="#FDB839"/>
<path fill-rule="evenodd" clip-rule="evenodd" d="M76.0077 99.474C76.0087 99.474 76.0096 99.474 76.0106 99.474C87.7104 99.3813 97.1198 89.8216 97.0272 78.1219C96.9345 66.4221 87.3748 57.0126 75.675 57.1053C75.674 57.1053 75.6731 57.1053 75.6721 57.1053L76.0077 99.474Z" fill="#1D3C59"/>
<path fill-rule="evenodd" clip-rule="evenodd" d="M75.1253 42.458C75.1249 42.5141 75.1249 42.5704 75.1254 42.6267C75.1736 48.7154 80.1485 53.6121 86.2372 53.5639C92.3259 53.5157 97.2226 48.5407 97.1744 42.4521C97.1744 42.4519 97.1744 42.4518 97.1744 42.4517L75.1266 42.6263L75.1253 42.458Z" fill="#1D3C59"/>
<path fill-rule="evenodd" clip-rule="evenodd" d="M126.082 33.7916C126.081 33.7916 126.08 33.7916 126.079 33.7916C114.379 33.8843 104.97 43.444 105.063 55.1438C105.155 66.8436 114.715 76.253 126.415 76.1603C126.416 76.1603 126.417 76.1603 126.418 76.1603L126.082 33.7916Z" fill="#FF6E41"/>
<path fill-rule="evenodd" clip-rule="evenodd" d="M126.593 99.0821L126.426 77.8949C126.423 77.8949 126.421 77.8949 126.419 77.8949C114.719 77.9876 105.31 87.5473 105.402 99.2471L105.402 99.25L126.593 99.0821Z" fill="#457BAD"/>
<circle cx="109.564" cy="23.9757" r="8.2146" transform="rotate(179.546 109.564 23.9757)" fill="#1D3C59"/>
<path fill-rule="evenodd" clip-rule="evenodd" d="M0.572836 17.9217C0.572844 17.9227 0.572851 17.9237 0.572859 17.9247C0.665531 29.6245 10.2252 39.0339 21.925 38.9412C33.6248 38.8486 43.0342 29.2889 42.9416 17.5891C42.9416 17.5881 42.9416 17.5871 42.9416 17.5861L0.572836 17.9217Z" fill="#457BAD"/>
<path fill-rule="evenodd" clip-rule="evenodd" d="M69.0963 17.6818C69.0035 17.6814 68.9106 17.6815 68.8175 17.6822C57.1177 17.7749 47.7083 27.3346 47.801 39.0344C47.8936 50.7342 57.4533 60.1436 69.1531 60.051C69.2462 60.0502 69.3391 60.0489 69.4318 60.0469L69.0963 17.6818Z" fill="#FDB839"/>
<path fill-rule="evenodd" clip-rule="evenodd" d="M125.32 -28.8075C125.319 -28.8075 125.319 -28.8075 125.318 -28.8075C113.618 -28.8075 104.133 -19.3227 104.133 -7.62252C104.133 4.07765 113.618 13.5625 125.318 13.5625C125.319 13.5625 125.319 13.5625 125.32 13.5625L125.32 -28.8075Z" fill="#1D3C59"/>
<path fill-rule="evenodd" clip-rule="evenodd" d="M0.538928 14.4662C0.539908 14.4662 0.540891 14.4662 0.541871 14.4662C12.2417 14.3735 21.6511 4.81383 21.5584 -6.88596C21.4658 -18.5858 11.9061 -27.9952 0.206275 -27.9025C0.205295 -27.9025 0.204313 -27.9025 0.203332 -27.9025L0.538928 14.4662Z" fill="#457BAD"/>
<path fill-rule="evenodd" clip-rule="evenodd" d="M41.1716 13.2295C41.172 13.1734 41.1719 13.1171 41.1715 13.0608C41.1233 6.97213 36.1483 2.07539 30.0597 2.12361C23.971 2.17184 19.0743 7.14678 19.1225 13.2354C19.1225 13.2356 19.1225 13.2357 19.1225 13.2358L41.1702 13.0612L41.1716 13.2295Z" fill="#FF6E41"/>
<path fill-rule="evenodd" clip-rule="evenodd" d="M75.0819 36.7943C75.0829 36.7943 75.0839 36.7943 75.0848 36.7943C86.7846 36.7016 96.1941 27.142 96.1014 15.4422C96.0087 3.74237 86.449 -5.66706 74.7492 -5.57439C74.7483 -5.57438 74.7473 -5.57437 74.7463 -5.57437L75.0819 36.7943Z" fill="#457BAD"/>
<path fill-rule="evenodd" clip-rule="evenodd" d="M69.2691 12.6212L69.1013 -8.56605C69.1004 -8.56604 69.0995 -8.56604 69.0986 -8.56603C57.3988 -8.47336 47.9893 1.08633 48.082 12.7861L48.082 12.7891L69.2691 12.6212Z" fill="#1D3C59"/>
</g>
<defs>
<clipPath id="clip0_2841_38062">
<rect width="130" height="126" fill="white"/>
</clipPath>
</defs>
</svg>
