<svg width="278" height="309" viewBox="0 0 278 309" fill="none" xmlns="http://www.w3.org/2000/svg">
<path fill-rule="evenodd" clip-rule="evenodd" d="M80.8744 57.7872C80.8737 57.6697 80.8733 57.5521 80.8733 57.4344C80.8733 25.7143 106.588 0 138.308 0C170.028 0 195.742 25.7138 195.742 57.4336L80.8744 57.4336V57.7872Z" fill="#FDB839"/>
<path fill-rule="evenodd" clip-rule="evenodd" d="M339.915 193.049C339.915 193.166 339.916 193.284 339.916 193.401C339.916 225.122 314.201 250.836 282.481 250.836C250.761 250.836 225.047 225.122 225.047 193.402L339.915 193.402L339.915 193.049Z" fill="#FDB839"/>
<path fill-rule="evenodd" clip-rule="evenodd" d="M156.751 193.405C156.854 193.405 156.958 193.405 157.062 193.405C188.782 193.405 214.496 219.119 214.496 250.839C214.496 282.559 188.782 308.273 157.062 308.273L157.062 193.405L156.751 193.405Z" fill="#FDB839"/>
<path fill-rule="evenodd" clip-rule="evenodd" d="M0.857639 69.1554C0.960742 69.1549 1.06391 69.1546 1.16714 69.1546C32.8873 69.1546 58.6016 94.8689 58.6016 126.589C58.6016 158.309 32.8873 184.023 1.16724 184.023L1.16724 69.1554L0.857639 69.1554Z" fill="#1D3C59"/>
<path fill-rule="evenodd" clip-rule="evenodd" d="M229.737 181.102C229.737 181.101 229.737 181.101 229.737 181.1C229.737 164.593 243.119 151.211 259.626 151.211C276.134 151.211 289.516 164.593 289.516 181.1C289.516 181.101 289.516 181.101 289.516 181.102H229.737Z" fill="#1D3C59"/>
<path fill-rule="evenodd" clip-rule="evenodd" d="M-0.00134227 223.289C-0.00134227 223.289 -0.00134227 223.288 -0.00134227 223.288C-0.00134227 206.78 13.3806 193.398 29.888 193.398C46.3954 193.398 59.7773 206.78 59.7773 223.288C59.7773 223.288 59.7773 223.289 59.7773 223.289H-0.00134227Z" fill="#FDB839"/>
<path fill-rule="evenodd" clip-rule="evenodd" d="M138.619 246.149C138.516 246.15 138.413 246.15 138.309 246.15C106.589 246.15 80.875 220.436 80.875 188.716C80.875 156.996 106.589 131.281 138.309 131.281L138.309 246.149L138.619 246.149Z" fill="#FF6E41"/>
<path fill-rule="evenodd" clip-rule="evenodd" d="M217.705 16.4132C217.808 16.4127 217.912 16.4124 218.015 16.4124C249.735 16.4124 275.449 42.1267 275.449 73.8468C275.449 105.567 249.735 131.281 218.015 131.281L218.015 16.4132L217.705 16.4132Z" fill="#FF6E41"/>
<path fill-rule="evenodd" clip-rule="evenodd" d="M153.546 123.074C185.266 123.074 210.98 148.788 210.98 180.508L153.546 180.508L153.546 123.074Z" fill="#457BAD"/>
<path fill-rule="evenodd" clip-rule="evenodd" d="M138.309 126.59C106.589 126.589 80.8755 100.876 80.875 69.1563L138.309 69.1562L138.309 126.59Z" fill="#457BAD"/>
<circle cx="22.2705" cy="22.2705" r="22.2705" transform="matrix(-1 0 0 1 198.09 69.1562)" fill="#1D3C59"/>
<circle cx="22.2705" cy="22.2705" r="22.2705" transform="matrix(-1 0 0 1 116.039 250.836)" fill="#1D3C59"/>
</svg>
